<?xml version="1.0" standalone="no"?>
<!DOCTYPE svg PUBLIC "-//W3C//DTD SVG 1.1//EN" "http://www.w3.org/Graphics/SVG/1.1/DTD/svg11.dtd" >
<svg xmlns="http://www.w3.org/2000/svg">
<metadata>Generated by IcoMoon</metadata>
<defs>
<font id="mtral" horiz-adv-x="1024">
<font-face units-per-em="1024" ascent="960" descent="-64" />
<missing-glyph horiz-adv-x="1024" />
<glyph unicode="&#x20;" horiz-adv-x="512" d="" />
<glyph unicode="&#xe900;" glyph-name="arrow" d="M839.851 543.087l-568.792 389.393c-26.268 17.995-52.735 27.52-74.734 27.52-42.531 0-68.84-34.134-68.84-91.27v-841.592c0-57.070 26.276-91.138 68.708-91.138 22.032 0 48.076 9.532 74.402 27.578l569.057 389.385c36.596 25.083 56.863 58.835 56.863 95.083 0.008 36.223-20.026 69.968-56.664 95.042z" />
<glyph unicode="&#xe901;" glyph-name="bitcoin" d="M722.24 485.76c85.234 89.664 81.644 231.448-8.020 316.682-25.542 24.28-56.454 42.192-90.22 52.278v41.28c0 35.346-28.654 64-64 64s-64-28.654-64-64v-32h-64v32c0 35.346-28.654 64-64 64s-64-28.654-64-64v-32h-32c-35.346 0-64-28.654-64-64v-704c0-35.346 28.654-64 64-64h32v-32c0-35.346 28.654-64 64-64s64 28.654 64 64v32h64v-32c0-35.346 28.654-64 64-64s64 28.654 64 64v40.32c112.96 29.166 191.912 131.016 192 247.68-0.080 76.63-34.484 149.196-93.76 197.76zM336 736h224c53.020 0 96-42.98 96-96s-42.98-96-96-96h-224v192zM560 160h-224v256h224c70.692 0 128-57.308 128-128s-57.308-128-128-128z" />
<glyph unicode="&#xe902;" glyph-name="chart" d="M1012.8 798.6c-15.2 15.2-39.6 15.2-54.8 0.2l-294.6-293.4-85.2 85.2c-15.2 15.2-39.6 15.2-54.8 0l-345.2-345.4c-15.2-15.2-15.2-39.8 0-54.8 7.6-7.6 17.4-11.4 27.4-11.4s19.8 3.8 27.4 11.4l317.8 317.8 85-85c15.2-15.2 39.6-15.2 54.8 0l322 320.6c15.2 15 15.2 39.6 0.2 54.8zM985.2 811.4h-290.8c-21.4 0-38.8-17.4-38.8-38.8s17.4-38.8 38.8-38.8h252.2v-252.2c0-21.4 17.4-38.8 38.8-38.8s38.8 17.4 38.8 38.8v291c-0.2 21.4-17.6 38.8-39 38.8z" />
<glyph unicode="&#xe903;" d="M1023.997 447.995c0.187-88.648-22.82-175.811-66.734-252.819-6-10.594-12.359-21.008-19.242-31.25-7.43-11.359-15.445-22.32-24.015-32.836-7.766-10.062-16.242-19.953-24.89-29.484-10.414-11.305-21.359-22.070-32.664-32.484-10.414-9.539-21.359-18.719-32.656-27.195-8.125-6.531-16.601-12.531-25.070-18.359-13.242-8.828-26.664-17.125-40.609-24.89h-0.352c-23.531-12.836-48.031-23.82-73.273-32.844-18.617-6.781-37.672-12.328-57.023-16.594-20.398-4.836-41.101-8.258-61.968-10.242-1.281-0.258-2.578-0.437-3.883-0.523-16.422-1.594-32.844-2.477-49.617-2.477-282.764 0-511.997 229.233-511.997 511.997 0.008 51.648 7.742 103.007 22.953 152.366 6.812 21.515 15.016 42.57 24.539 63.031 8.234 17.726 17.43 35 27.547 51.726l0.352 0.531c14.812 24.156 31.64 47.015 50.32 68.32 10.258 12.055 21.226 23.492 32.836 34.258l0.352 0.352c16.18 15.766 33.531 30.281 51.906 43.429 11.297 8.297 22.953 16.062 34.781 23.484 12.359 7.414 25.070 14.297 37.961 20.656 11.422 5.961 23.148 11.32 35.133 16.062h0.172c11.836 4.945 23.836 9.359 36.195 13.242 11.476 3.711 23.305 7.062 35.133 9.891 152.726 37.336 314.131 2.469 437.818-94.585s195.952-245.545 195.999-402.763z" />
<glyph unicode="&#xe904;" d="M856.451 69.122c-10.414-9.539-21.359-18.719-32.656-27.195-356.248 46.531-622.457 350.467-621.637 709.738-0.078 36.953 2.812 73.851 8.648 110.343 11.297 8.297 22.953 16.062 34.781 23.484 2.562-3.711 3.516-8.297 2.648-12.711-33.453-185.921 11.789-377.373 124.937-528.645 113.14-151.265 284.014-248.756 471.802-269.194 4.398-0.5 8.477-2.57 11.476-5.82z" />
<glyph unicode="&#xe905;" d="M914.005 131.091c-7.766-10.062-16.242-19.953-24.89-29.484-8.117 1.234-16.062 2.469-24.008 3.883-4.617 0.82-8.719 3.437-11.398 7.273-2.68 3.844-3.727 8.594-2.906 13.203 0.187 1.031 0.484 2.039 0.883 3.008 2.852 8.086 11.172 12.883 19.601 11.297 11.117-2.117 22.242-3.711 33.539-5.297 3.391-0.328 6.594-1.68 9.18-3.883z" />
<glyph unicode="&#xe906;" d="M429.485 428.027c-5.477 8.070-16.453 10.172-24.523 4.695-8.070-5.469-10.172-16.453-4.695-24.523 13.242-19.508 27.664-38.625 42.828-56.789 3.984-5.039 10.383-7.516 16.719-6.477 6.328 1.039 11.601 5.437 13.758 11.484 2.164 6.047 0.867 12.789-3.375 17.601-14.422 17.289-28.125 35.453-40.711 54.007z" />
<glyph unicode="&#xe907;" d="M332.485 533.057c9.125-21.75 19.422-43.32 30.773-64.125 3.008-5.539 8.75-9.062 15.055-9.227s12.219 3.047 15.516 8.422c3.297 5.375 3.477 12.109 0.469 17.648-10.758 19.812-20.516 40.148-29.234 60.929-3.773 8.992-14.117 13.234-23.117 9.461-8.992-3.766-13.226-14.109-9.461-23.109z" />
<glyph unicode="&#xe908;" d="M297.986 723.415h1.766c4.664 0.445 8.961 2.727 11.945 6.344 2.977 3.617 4.398 8.273 3.945 12.937-2.156 22.101-3.234 44.64-3.25 67.601-0.008 4.648-1.883 9.102-5.203 12.359-3.312 3.266-7.797 5.062-12.445 4.992-9.812-0.141-17.68-8.148-17.656-17.953 0-23.484 1.148-47.195 3.422-70.429 0.922-8.969 8.461-15.805 17.476-15.851z" />
<glyph unicode="&#xe909;" d="M290.876 668.947c4.633-23.281 10.437-46.312 17.391-69.007 2.273-7.422 9.117-12.484 16.875-12.484 1.75 0.008 3.492 0.266 5.172 0.773 4.484 1.375 8.234 4.461 10.43 8.602 2.203 4.133 2.664 8.977 1.297 13.453-6.609 21.562-12.125 43.453-16.531 65.57-1.906 9.562-11.203 15.773-20.766 13.867-9.57-1.906-15.773-11.203-13.867-20.773z" />
<glyph unicode="&#xe90a;" d="M596.945 234.496c-2.562-3.922-3.461-8.703-2.492-13.281 0.961-4.586 3.703-8.594 7.625-11.156 19.828-12.922 40.5-25.015 61.461-35.875 8.625-4.289 19.101-0.875 23.539 7.672 4.437 8.555 1.195 19.086-7.281 23.664-19.914 10.328-39.562 21.789-58.328 34.148-3.937 2.586-8.734 3.492-13.344 2.516-4.602-0.969-8.633-3.734-11.18-7.687z" />
<glyph unicode="&#xe90b;" d="M491.117 324.074c-6.828-6.953-6.727-18.133 0.227-24.961 16.828-16.547 34.711-32.453 53.164-47.281 7.602-6.141 18.734-4.953 24.875 2.648s4.953 18.734-2.648 24.875c-17.547 14.125-34.554 29.234-50.562 44.953-3.344 3.305-7.875 5.141-12.578 5.094-4.703-0.039-9.195-1.961-12.476-5.328z" />
<glyph unicode="&#xe90c;" d="M718.405 167.512c-1.734-4.352-1.672-9.219 0.18-13.523s5.336-7.695 9.695-9.43c22.062-8.773 44.554-16.43 67.39-22.953 1.57-0.461 3.211-0.687 4.852-0.687 8.82-0.016 16.297 6.477 17.516 15.203 1.227 8.734-4.18 17.031-12.656 19.437-21.578 6.164-43.133 13.508-64.039 21.82-9.055 3.609-19.328-0.812-22.937-9.867z" />
<glyph unicode="&#xe90d;" d="M320.095 912.5c-1.766-11.297-3.18-22.773-4.414-34.070-0.828-9.031-8.414-15.93-17.484-15.891h-1.766c-9.703 1.055-16.773 9.695-15.883 19.422 0.883 8.117 1.766 16.242 3 24.187 11.422 5.961 23.148 11.32 35.133 16.062h0.172c1.297-3.062 1.727-6.422 1.242-9.711z" />
<glyph unicode="&#xe90e;" d="M75.393 715.65c5.914-3.359 9.352-9.82 8.828-16.601-0.883-11.297-1.414-22.773-1.586-34.25-0.25-9.586-8.070-17.242-17.656-17.297h-0.359c-8.891 0.219-16.234 7.031-17.125 15.891z" />
<glyph unicode="&#xe90f;" d="M139.354 379.003c-9.82 22.422-18.422 45.367-25.758 68.726-1.891 6.023-6.852 10.578-13.008 11.945-6.164 1.375-12.586-0.641-16.851-5.297-4.273-4.648-5.734-11.219-3.844-17.242 7.734-24.594 16.789-48.758 27.117-72.382 2.398-5.977 7.852-10.172 14.242-10.961 6.391-0.781 12.695 1.977 16.469 7.195 3.766 5.219 4.391 12.070 1.633 17.891z" />
<glyph unicode="&#xe910;" d="M95.448 518.846c-4.75 24.008-8.203 48.258-10.344 72.632-0.445 6.367-4.289 12-10.062 14.734-5.766 2.727-12.562 2.133-17.766-1.562-5.211-3.695-8.016-9.914-7.344-16.258 2.25-25.648 5.875-51.148 10.875-76.398 1.219-6.195 5.648-11.273 11.625-13.312s12.586-0.734 17.336 3.43c4.75 4.164 6.914 10.539 5.68 16.734z" />
<glyph unicode="&#xe911;" d="M430.016 58.224c-21.328 12.008-41.992 25.14-61.922 39.336-5.133 3.664-11.828 4.312-17.57 1.703-5.742-2.617-9.656-8.094-10.258-14.375-0.609-6.281 2.18-12.406 7.312-16.070 20.953-14.937 42.687-28.742 65.117-41.367 8.492-4.781 19.258-1.766 24.047 6.727 4.781 8.5 1.766 19.266-6.727 24.047z" />
<glyph unicode="&#xe912;" d="M258.619 194.965c-6.617 6.906-17.523 7.289-24.609 0.867-7.086-6.43-7.766-17.32-1.539-24.578 17.266-19.062 35.531-37.195 54.734-54.304 7.281-6.484 18.445-5.836 24.922 1.445 6.484 7.281 5.836 18.445-1.445 24.93-18.258 16.273-35.64 33.515-52.062 51.64z" />
<glyph unicode="&#xe913;" d="M564.617 0.74c-23.39 7.117-46.375 15.492-68.859 25.086-8.945 3.734-19.226-0.437-23.031-9.352-3.812-8.914 0.273-19.226 9.156-23.109 23.664-10.133 47.859-18.976 72.476-26.484 1.664-0.5 3.398-0.758 5.133-0.758 8.75 0 16.18 6.406 17.469 15.062 1.281 8.656-3.969 16.945-12.344 19.484z" />
<glyph unicode="&#xe914;" d="M172.408 313.48c-4.875 8.453-15.68 11.359-24.133 6.484s-11.359-15.68-6.484-24.14c12.828-22.32 26.844-43.937 41.984-64.757 3.328-4.57 8.648-7.281 14.305-7.273 6.641 0.008 12.711 3.742 15.719 9.664s2.437 13.023-1.477 18.391c-14.398 19.82-27.719 40.39-39.914 61.632z" />
<glyph unicode="&#xe915;" d="M684.491-34.166c-18.617-6.781-37.672-12.328-57.023-16.594-8.797 2.898-13.836 12.133-11.5 21.094s11.234 14.57 20.328 12.805c11.297-2.117 22.594-3.883 33.898-5.469 6.664-0.82 12.242-5.437 14.297-11.836z" />
<glyph unicode="&#xe916;" d="M158.901 818.579c3.836-3.914 5.609-9.414 4.766-14.836-1.586-11.297-2.82-22.594-3.883-34.25-0.82-9.125-8.492-16.101-17.656-16.062-0.531-0.031-1.070 0.031-1.586 0.172-4.641 0.406-8.937 2.648-11.914 6.227-2.984 3.578-4.414 8.203-3.977 12.844 0.352 3.883 0.703 7.594 1.062 11.297z" />
<glyph unicode="&#xe917;" d="M536.328 60.607c5.734-2.734 12.5-2.18 17.703 1.461 5.211 3.633 8.070 9.781 7.484 16.109-0.594 6.32-4.531 11.844-10.32 14.461-20.969 9.742-41.429 20.555-61.297 32.398-8.383 4.992-19.219 2.242-24.211-6.141-4.992-8.375-2.25-19.219 6.133-24.211 20.914-12.445 42.445-23.812 64.507-34.078z" />
<glyph unicode="&#xe918;" d="M378.657 207.661c-4.656 4.258-11.234 5.703-17.242 3.805-6.016-1.906-10.562-6.867-11.922-13.031-1.359-6.156 0.672-12.578 5.328-16.836 17.969-16.422 36.758-31.922 56.304-46.429 3.023-2.289 6.711-3.531 10.5-3.531 7.602 0 14.344 4.859 16.75 12.070s-0.078 15.148-6.156 19.711c-18.586 13.836-36.469 28.601-53.562 44.242z" />
<glyph unicode="&#xe919;" d="M682.124 47.474c-22.515 5.258-44.742 11.656-66.609 19.172-6 2.203-12.719 0.992-17.57-3.164-4.852-4.148-7.078-10.601-5.828-16.867s5.789-11.367 11.867-13.336c23.008-7.93 46.414-14.68 70.109-20.211 9.391-1.969 18.625 3.922 20.812 13.258 2.18 9.344-3.492 18.711-12.781 21.109z" />
<glyph unicode="&#xe91a;" d="M242.072 345.121c4.055 2.352 7.008 6.211 8.203 10.742 1.203 4.523 0.562 9.344-1.789 13.391-11.617 20.039-22.195 40.664-31.695 61.797-4.148 8.625-14.422 12.367-23.156 8.437-8.727-3.93-12.734-14.109-9.023-22.937 9.992-22.203 21.117-43.89 33.344-64.953 4.898-8.422 15.687-11.289 24.117-6.406z" />
<glyph unicode="&#xe91b;" d="M286.322 311.066c-5.883 7.414-16.555 8.883-24.219 3.32-7.656-5.555-9.57-16.164-4.336-24.047 14.289-19.711 29.57-38.679 45.781-56.836 6.492-7.273 17.656-7.906 24.93-1.414 7.273 6.5 7.906 17.656 1.414 24.93-15.422 17.273-29.969 35.312-43.57 54.047z" />
<glyph unicode="&#xe91c;" d="M144.104 611.291c0.687-0.008 1.375 0.039 2.055 0.125 4.648 0.531 8.898 2.891 11.805 6.562 2.914 3.672 4.25 8.344 3.711 12.992-2.68 22.992-4.195 46.101-4.539 69.25-0.25 9.695-8.195 17.43-17.898 17.406-4.687-0.062-9.148-1.992-12.414-5.344-3.266-3.359-5.062-7.875-5-12.562 0.344-24.328 1.914-48.633 4.703-72.804 1.031-8.93 8.602-15.648 17.578-15.625z" />
<glyph unicode="&#xe91d;" d="M152.104 575.979c-9.523-2.102-15.539-11.523-13.437-21.047 5.273-23.789 11.758-47.297 19.422-70.421 2.398-7.227 9.148-12.094 16.758-12.094 1.891-0.008 3.766 0.297 5.562 0.898 4.445 1.469 8.125 4.648 10.227 8.836s2.453 9.031 0.984 13.476c-7.297 21.976-13.453 44.312-18.453 66.914-1.008 4.578-3.797 8.562-7.742 11.086-3.953 2.516-8.742 3.367-13.32 2.352z" />
<glyph unicode="&#xe91e;" d="M798.725 23.568c-13.242-8.828-26.664-17.125-40.609-24.89h-0.352c-3.711 0.531-7.594 0.883-11.305 1.414-9.211 1.727-15.469 10.352-14.25 19.648s9.492 16.016 18.844 15.305c11.297-1.414 22.601-2.469 34.25-3.352 5.539-0.328 10.562-3.367 13.422-8.125z" />
<glyph unicode="&#xe91f;" d="M390.712 939.164c-1.055-11.476-1.937-22.781-2.648-34.429-0.461-9.312-8.156-16.617-17.476-16.594h-1.062c-9.687 0.562-17.094 8.844-16.594 18.531 0.352 9.539 1.234 19.25 2.117 28.781 11.476 3.711 23.305 7.062 35.133 9.891 0.539-2.016 0.719-4.109 0.531-6.18z" />
<glyph unicode="&#xe920;" d="M573.586 350.027c4.57-4.352 11.117-5.937 17.172-4.156 6.055 1.773 10.703 6.648 12.187 12.789 1.492 6.133-0.406 12.594-4.977 16.953-17.711 16.898-34.5 34.734-50.304 53.422-4.023 4.961-10.422 7.359-16.719 6.266-6.297-1.086-11.516-5.5-13.641-11.523-2.117-6.031-0.82-12.734 3.398-17.531 16.609-19.672 34.265-38.437 52.883-56.218z" />
<glyph unicode="&#xe921;" d="M763.764 219.7c23.297-10.93 47.164-20.594 71.5-28.937 1.844-0.641 3.773-0.969 5.727-0.969 8.625 0 15.992 6.242 17.406 14.75 1.422 8.516-3.523 16.805-11.687 19.601-23.133 7.937-45.82 17.125-67.953 27.508-5.742 2.891-12.594 2.437-17.898-1.187s-8.227-9.844-7.617-16.242c0.602-6.398 4.633-11.961 10.523-14.523z" />
<glyph unicode="&#xe922;" d="M695.811 256.207c8.312-4.867 18.992-2.18 24.008 6.055 5.008 8.227 2.492 18.953-5.648 24.101-20.898 12.726-41.094 26.562-60.5 41.453-7.75 5.586-18.523 4.008-24.336-3.57-5.812-7.57-4.555-18.391 2.844-24.43 20.414-15.664 41.656-30.219 63.632-43.609z" />
<glyph unicode="&#xe923;" d="M434.43 533.956c12.039-22.758 25.289-44.859 39.703-66.203 3.531-5.227 9.586-8.172 15.875-7.727s11.867 4.219 14.625 9.891c2.766 5.672 2.289 12.383-1.242 17.609-13.703 20.258-26.305 41.25-37.734 62.867-2.945 5.586-8.648 9.164-14.953 9.398s-12.258-2.906-15.617-8.25c-3.359-5.344-3.609-12.070-0.656-17.656z" />
<glyph unicode="&#xe924;" d="M369.579 848.063c-9.734-0.523-17.203-8.836-16.68-18.578 1.359-25.703 4.102-51.312 8.203-76.726 1.016-6.227 5.273-11.445 11.172-13.68 5.906-2.242 12.547-1.156 17.437 2.828 4.891 3.992 7.273 10.289 6.266 16.516-3.906 24.156-6.523 48.5-7.828 72.937-0.242 4.68-2.336 9.062-5.82 12.195s-8.070 4.758-12.75 4.508z" />
<glyph unicode="&#xe925;" d="M377.563 677.322c6.844-24.844 15.031-49.289 24.539-73.234 2.664-6.734 9.172-11.164 16.414-11.164 5.852 0.008 11.32 2.906 14.601 7.742 3.289 4.844 3.961 10.992 1.805 16.43-9.023 22.765-16.812 45.992-23.32 69.601-2.703 9.266-12.336 14.641-21.64 12.078s-14.828-12.117-12.398-21.453z" />
<glyph unicode="&#xe926;" d="M957.263 195.176c-6-10.594-12.359-21.008-19.242-31.25-9.531 1.586-18.891 3.531-28.070 5.648-6.328 1.219-11.484 5.789-13.461 11.914-1.977 6.133-0.461 12.851 3.961 17.531 4.414 4.687 11.031 6.594 17.266 4.984 11.125-2.469 22.422-4.594 33.719-6.531 2.094-0.312 4.086-1.102 5.828-2.297z" />
<glyph unicode="&#xe927;" d="M870.232 671.22c-39.742 49.375-96.585 69.578-126.968 45.125-30.383-24.461-22.797-84.304 16.937-133.679 39.742-49.375 96.585-69.57 126.968-45.117s22.797 84.304-16.937 133.671z" />
<glyph unicode="&#xe928;" d="M638.366 839.298c-28.64 5.93-55.711-7.836-60.453-30.75-4.75-22.914 14.625-46.304 43.273-52.234 28.64-5.93 55.711 7.836 60.453 30.75 4.75 22.914-14.625 46.304-43.273 52.234z" />
<glyph unicode="&#xe929;" glyph-name="football" d="M512 960c-282.767 0-512-229.233-512-512s229.233-512 512-512 512 229.233 512 512c-0.317 282.633-229.367 511.683-512 512zM530.275 812.392l177.992 71.15c20.2-9.142 39.742-19.675 58.483-31.525l0.467-0.292c18.417-11.667 36.017-24.575 52.683-38.633l1.433-1.25c7.475-6.367 14.742-12.958 21.808-19.758 0.892-0.875 1.825-1.708 2.717-2.6 7.408-7.233 14.583-14.692 21.525-22.367 0.575-0.65 1.125-1.333 1.7-1.983 6.092-6.825 11.95-13.892 17.633-21.075 1.367-1.708 2.733-3.417 4.058-5.125 6.167-7.983 12.133-16.108 17.767-24.492l-35.483-150.833-174.575-58.2-168.167 134.558zM133.208 738.833c1.325 1.708 2.675 3.417 4.042 5.117 5.617 7.125 11.425 14.075 17.425 20.858 0.65 0.717 1.25 1.45 1.892 2.167 6.9 7.692 14.042 15.142 21.442 22.358 0.85 0.833 1.7 1.708 2.592 2.475 7.008 6.758 14.217 13.308 21.625 19.642l1.708 1.433c16.517 13.958 33.95 26.783 52.183 38.4l0.667 0.425c18.633 11.825 38.050 22.342 58.133 31.492l178.808-70.808v-172.375l-168.175-134.533-174.575 58.092-35.483 150.833c5.683 8.367 11.583 16.475 17.717 24.425zM112.642 186.108c-5.017 7.65-9.817 15.442-14.392 23.383l-1.108 1.917c-4.55 7.9-8.858 15.933-12.917 24.092l-0.142 0.258c-8.55 17.167-16.058 34.833-22.475 52.908v0.167c-3.033 8.533-5.8 17.275-8.358 26.067l-0.925 3.242c-2.342 8.258-4.467 16.608-6.367 25.050-0.167 0.825-0.375 1.608-0.542 2.425-4.192 19.067-7.2 38.367-9.017 57.808l104.192 125.025 173.367-57.783 50.317-201.25-82.675-110zM625.65-16.092c-8.533-2.117-17.292-3.942-26.050-5.583-1.225-0.242-2.475-0.442-3.7-0.667-7.458-1.333-15-2.475-22.558-3.408-2.017-0.258-4.017-0.533-6.025-0.775-7.017-0.817-14.1-1.433-21.2-1.942-2.233-0.15-4.442-0.375-6.675-0.517-9.075-0.558-18.225-0.883-27.442-0.883-8.442 0-16.833 0.225-25.175 0.667-1.008 0-1.975 0.167-2.983 0.242-7.425 0.425-14.817 0.983-22.192 1.7l-0.85 0.158c-16.158 1.75-32.225 4.317-48.125 7.675l-100.95 158.058 81.375 108.508h237.8l82.708-109.225zM978.708 345.6c-0.175-0.817-0.375-1.608-0.55-2.425-1.908-8.433-4.033-16.783-6.367-25.050l-0.917-3.242c-2.567-8.792-5.325-17.5-8.367-26.067v-0.167c-6.417-18.075-13.917-35.742-22.475-52.908l-0.142-0.258c-4.083-8.167-8.383-16.2-12.917-24.092l-1.108-1.917c-4.55-7.967-9.342-15.742-14.367-23.35l-168.383-26.55-83.25 109.908 50.292 201.2 173.367 57.783 104.192-125.025c-1.808-19.45-4.817-38.767-9.008-57.842z" />
<glyph unicode="&#xe92a;" glyph-name="greyhound" d="M555.584 676.935c1.167-0.127-1.111 0.302 0 0v0zM1012.245 400.112l-246.412 129.034c-6.315 27.702-21.785 63.224-58.615 92.924-36.58 29.5-87.474 48.271-151.634 54.866l-488.203 52.464c-11.306 1.23-21.66-6.39-23.867-17.536-0.275-1.391-6.605-34.511 5.939-74.886 5.313-17.102 14.581-37.167 30.64-56.954l-63.997-17.655c-11.236-3.099-18.084-14.449-15.584-25.834 0.297-1.355 7.586-33.532 34.467-65.161 18.803-22.126 50.332-47.484 100.328-58.184-45.386-98.939-60.493-187.9-61.171-191.995-0.989-5.969 0.534-12.084 4.205-16.893 3.674-4.809 9.17-7.886 15.187-8.502l284.926-29.21c0.758-0.078 1.506-0.115 2.253-0.115 9.898 0 18.708 6.697 21.219 16.466 14.664 57.017 42.665 132.817 116.253 132.817 38.365 0 81.386-18.998 118.702-36.804 53.472-25.519 104.396-38.458 151.349-38.458 87.333 0 137.339 44.071 155.262 63.675 64.62 3.428 80.085 55.567 80.499 76.075 0.171 8.312-4.38 16.008-11.747 19.865zM695.644 489.644c-5.116-5.537-12.081-8.753-19.614-9.050-0.375-0.015-0.753-0.022-1.126-0.022-15.209 0-27.595 11.906-28.199 27.105-0.607 15.555 11.54 28.703 27.078 29.325 0.385 0.015 0.76 0.022 1.128 0.022 15.209 0 27.597-11.906 28.202-27.105 0.297-7.538-2.356-14.737-7.469-20.274z" />
<glyph unicode="&#xe92b;" glyph-name="racing-horse-head-silhouette" d="M1010.339 351.787c0.793 3.383-1.679 7.606-4.714 9.367-54.477 31.519-105.321 75.222-159.98 102.117-3.15 1.542-3.615 4.666-1.006 6.975 0.608 0.545 1.223 1.080 1.796 1.608 2.605 2.331 1.962 5.803-1.169 7.38-22.827 11.616-44.613 20.095-82.678 33.52-3.3 1.163-6.975 4.765-8.676 7.8-17.171 30.354-71.96 50.566-108.063 50.63-3.497 0-3.742-1.401-0.64-2.984 7.733-3.949 17.037-9.632 22.378-18.579 1.784-2.991-0.051-4.915-3.414-3.965-39.696 11.157-86.8 19.725-134.907 20.986-127.877 3.398-282.726-33.602-445.336-143.083-2.905-1.959-2.73-4.864 0.398-6.447 45.072-22.659 87.733-32.838 131.050-43.489 3.398-0.844 8.495 0.051 11.412 1.943 93.109 60.478 177.214 80.684 282.363 85.408 3.497 0.147 5.080 2.819 3.274 5.803-5.080 8.396-12.17 17.078-17.161 25.474-1.79 3-0.166 5.284 3.3 4.774 44.142-6.418 96.457-30.315 137.656-50.576 3.15-1.532 6.284-3.395 7.208-3.94 0.908-0.564 1.784-3.809 2.077-7.291 4.125-47.696 23.716-81.439 73.639-92.807 3.414-0.771 9.004-0.956 12.485-0.526 18.193 2.226 38.81 6.004 55.844 17.053 2.921 1.898 7.784 2.586 10.95 1.105 14.795-6.963 43.559-22.894 55.299-33.727 2.574-2.36 1.532-3.73-1.682-2.376-16.247 6.861-29.586 15.438-48.588 18.868-3.43 0.624-8.625-0.627-11.743-2.242-15.801-8.313-41.215-15.616-66.004-16.706-3.481-0.15-9.138 0.21-12.568 0.774-64.963 10.571-81.64 45.683-102.766 98.775-1.287 3.249-5.080 6.628-8.479 7.386-19.41 4.322-45.107 6.513-72.161 5.787-69.543-1.879-149.615-28.682-204.666-83.417-2.481-2.475-1.806-5.609 1.417-6.943 31.953-13.212 62.029-24.758 89.020-43.725 2.854-2.013 6.959-1.583 9.441 0.889 15.941 15.865 63.58 54.079 132.056 55.185 3.5 0.051 3.631-0.889 0.331-2.045-52.436-18.257-74.782-36.023-102.798-81.245-1.847-2.972-0.659-6.549 1.857-8.988 12.18-11.727 27.701-46.69 40.82-77.566 1.37-3.217 3.125-3.067 4.016 0.296 25.038 94.734 84.987 123.581 134.811 143.965 3.236 1.319 8.313 0.956 11.317-0.825 21.703-12.995 44.578-28.631 73.094-26.968 25.761 1.519 47.534 6.832 66.269 15.339 3.182 1.433 8.246 1.468 11.38-0.051 34.042-16.61 69.865-32.87 85.481-69.6 1.37-3.201 5.099-6.052 8.574-6.332 14.037-1.137 26.853-3.284 36.73-4.848 3.446-0.529 8.262 1.054 10.654 3.593 1.981 2.096 4.271 4.587 6.103 6.781 2.242 2.688 0.561 5.507-2.902 5.969-36.877 4.883-58.102 20.665-57 41.645 0.79 15.387 15.454 25.086 34.634 23.14 21.455-2.191 53.697-18.489 85.662-48.853 2.526-2.392 5.724-4.567 7.192-4.682 1.468-0.134 3.746 2.488 5.112 5.704 2.558 6.004 5.163 12.521 5.641 19.378 0.264 3.481-2.456 8.033-4.966 10.476-17.824 17.594-11.259 37.845-8.673 48.929zM734.254 521.233c-15.438 7.482-25.56 10.087-44.218 15.874-3.348 1.029-3.217 2.093 0.264 2.284 2.79 0.134 5.673 0.166 9.6-0.191 3.481-0.296 5.214 1.93 2.988 4.634-1.468 1.784-3.233 3.488-5.211 5.335-2.577 2.376-1.946 3.453 1.335 2.258 16.524-6.029 25.334-13.549 36.975-28.054 2.191-2.723 1.401-3.656-1.733-2.14zM924.941 386.536c-33.099 16.69-76.327 44.186-97.766 56.207-3.051 1.698-7.587 0.991-10.488-0.924-0.659-0.446-1.354-0.873-2.096-1.287-3.051-1.729-7.472-0.331-9.909 2.163-9.32 9.402-30.497 27-48.588 42.954-2.621 2.319-1.898 3.918 1.417 2.822 29.322-9.797 134.069-69.294 168.519-100.349 2.589-2.344 2.013-3.15-1.089-1.586zM992.595 322.975c-10.539 6.963-23.519 15.206-27.411 29.077-0.956 3.367 1.583 7.24 5.048 7.705 4.864 0.64 9.912 0.21 14.976-0.529 3.462-0.51 4.45-3.236 1.714-5.427-2.64-2.112-4.978-3.79-5.376-6.612-0.608-4.338 6.482-15.702 12.141-22.974 2.159-2.742 1.828-3.166-1.092-1.239zM470.346 591.46c1.822-2.978 5.994-5.204 9.476-4.966 45.432 3.035 88.946-5.392 124.074-7.182 3.497-0.182 4.997 2.252 3.265 5.287-40.903 71.728-126.772 126.259-195.149 124.957-108.474-2.054-128.578-58.194-182.498-53.124-19.725 1.857-37.425 10.737-52.828 22.56-2.771 2.128-3.981 1.277-2.838-2.010 12.476-35.45 23.337-66.425 64.157-67.603 30.016-0.866 101.381 32.606 155.377 34.007 20.050 0.494 53.844-14.116 76.964-51.926zM357.304 613.281c-44.932 0.825-122.928-34.695-174.51-31.246-50.295 3.363-74.859 20.114-84.764 95.823-0.455 3.462-1.615 3.564-2.548 0.207-5.899-21.27-8.272-43.030-6.176-60.58 6.886-57.742 54.086-94.915 105.040-99.358 3.481-0.299 8.956 0.624 12.212 1.879 69.798 26.627 137.474 52.283 212.154 60.274 3.478 0.369 5.689 3.462 3.934 6.463-9.472 16.32-40.766 26.098-65.342 26.538zM72.295 464.408c44.12 0.322 70.855 15.731 92.335 30.526 2.87 1.981 2.631 4.848-0.405 6.571-16.387 9.31-40.333 27.156-61.204 25.079-39.813-3.969-44.218-31.271-99.005-11.125-3.274 1.198-4.899-0.369-3.529-3.577 15.148-35.45 36.565-47.728 71.807-47.473z" />
<glyph unicode="&#xe92c;" glyph-name="close" d="M998.723 934.907c-0.024 0.021-0.045 0.045-0.069 0.067-33.3 33.343-87.324 33.372-120.664 0.069-0.021-0.021-0.045-0.045-0.067-0.067l-366.039-366.039-366.466 366.039c-35.793 30.65-89.657 26.485-120.307-9.308-27.354-31.943-27.354-79.055 0-110.998l366.039-366.466-366.039-366.466c-33.34-33.34-33.34-87.393 0-120.733s87.393-33.34 120.733 0l853.238 853.238c33.22 33.42 33.060 87.444-0.36 120.664zM998.656 81.738l-255.971 255.971c-33.34 33.34-87.393 33.34-120.733 0s-33.34-87.393 0-120.733l255.971-255.971c33.34-33.34 87.393-33.34 120.733 0s33.338 87.393 0 120.733z" />
<glyph unicode="&#xe92d;" d="M167 502.12v-102.4c0-28.28 105.216-51.2 235-51.2s235 22.936 235 51.2v102.4z" />
<glyph unicode="&#xe92e;" d="M637 502.12c0-28.286-105.213-51.216-235-51.216s-235 22.93-235 51.216c0 28.286 105.213 51.216 235 51.216s235-22.93 235-51.216z" />
<glyph unicode="&#xe92f;" d="M387 350.4v-102.4c0-28.288 105.216-51.2 235-51.2s235 22.928 235 51.2v102.4z" />
<glyph unicode="&#xe930;" d="M857 350.424c0-28.286-105.213-51.216-235-51.216s-235 22.93-235 51.216c0 28.286 105.213 51.216 235 51.216s235-22.93 235-51.216z" />
<glyph unicode="&#xe931;" d="M277 648v-102.4c0-28.28 105.216-51.2 235-51.2s235 22.928 235 51.2v102.4z" />
<glyph unicode="&#xe932;" d="M747 648c0-28.286-105.213-51.216-235-51.216s-235 22.93-235 51.216c0 28.286 105.213 51.216 235 51.216s235-22.93 235-51.216z" />
<glyph unicode="&#xe933;" glyph-name="coinflip" d="M511.2 960.6c-281.2 0-512-230.8-512-512s230.8-512 512-512 512 230.8 512 512-230.8 512-512 512zM511.2 58.6c-215 0-390 175-390 390s175 390 390 390 390-175 390-390-175-390-390-390zM840.8 448.6c0-182.033-147.567-329.6-329.6-329.6s-329.6 147.567-329.6 329.6c0 182.033 147.567 329.6 329.6 329.6s329.6-147.567 329.6-329.6z" />
<glyph unicode="&#xe934;" glyph-name="crash" d="M1024 853.4l-21.4-177.2-42.6 42.8-384-384-147.2 145-358.4-358.4-70.4 70.4 428.8 428.8 147.2-147.2 313.6 315.8-42.6 42.6z" />
<glyph unicode="&#xe935;" glyph-name="dollar" d="M874.040 810.040c-96.706 96.702-225.28 149.96-362.040 149.96s-265.334-53.258-362.040-149.96c-96.702-96.706-149.96-225.28-149.96-362.040s53.258-265.334 149.96-362.040c96.706-96.702 225.28-149.96 362.040-149.96s265.334 53.258 362.040 149.96c96.702 96.706 149.96 225.28 149.96 362.040s-53.258 265.334-149.96 362.040zM512-4c-249.234 0-452 202.766-452 452s202.766 452 452 452 452-202.766 452-452-202.766-452-452-452zM512 840c-216.15 0-392-175.85-392-392s175.85-392 392-392 392 175.85 392 392-175.85 392-392 392zM450.818 500.018l141.336-47.114c41.778-13.924 69.846-52.866 69.846-96.904 0-33.224-17.186-65.168-47.148-87.64-20.464-15.35-45.646-25.604-72.852-29.966v-62.394h-60v62.396c-27.206 4.362-52.388 14.616-72.852 29.966-29.964 22.47-47.148 54.414-47.148 87.638h60c0-32.524 41.214-60 90-60s90 27.476 90 60c0 18.17-11.582 34.238-28.818 39.982l-141.338 47.114c-41.776 13.924-69.844 52.866-69.844 96.904 0 33.224 17.184 65.168 47.148 87.64 20.466 15.35 45.648 25.604 72.852 29.966v62.394h60v-62.396c27.206-4.362 52.388-14.616 72.852-29.966 29.962-22.47 47.148-54.414 47.148-87.638h-60c0 32.524-41.214 60-90 60s-90-27.476-90-60c0-18.17 11.582-34.238 28.818-39.982z" />
<glyph unicode="&#xe936;" glyph-name="down-arrow" d="M0 704.001l512.002-512.002 511.998 512.002z" />
<glyph unicode="&#xe937;" glyph-name="edit" d="M632.375 788.009l-563.419-563.46c-2.835-2.843-4.881-6.433-5.856-10.291l-62.45-250.659c-1.868-7.545 0.349-15.57 5.856-21.076 4.167-4.167 9.844-6.473 15.651-6.473 1.779 0 3.598 0.219 5.369 0.666l250.659 62.458c3.907 0.975 7.456 3.013 10.291 5.848l563.468 563.419zM991.527 864.834l-62.718 62.718c-41.917 41.917-114.974 41.877-156.843 0l-76.825-76.825 219.561-219.561 76.825 76.825c20.938 20.93 32.472 48.789 32.472 78.417s-11.533 57.487-32.472 78.426z" />
<glyph unicode="&#xe938;" glyph-name="ethereum" d="M512.563 292.836l-280.563 133.469 280.563-490.305 280.57 490.305zM762.578 525.766l-250.016 434.234-250.297-434.734 250.297 118.734zM283.961 468.93l228.602-108.281 228.984 108.461-228.984 108.273z" />
<glyph unicode="&#xe939;" glyph-name="eye" d="M1016.354 468.010c-9.14 10.196-228.99 249.99-504.354 249.99s-495.212-239.794-504.354-249.99c-10.196-11.396-10.196-28.624 0-40.020 9.142-10.196 228.994-249.99 504.354-249.99s495.212 239.794 504.354 249.99c10.194 11.396 10.194 28.624 0 40.020zM512 238c-115.782 0-210 94.218-210 210s94.218 210 210 210 210-94.218 210-210-94.218-210-210-210zM542 508c0 30.18 14.982 56.73 37.774 73.060-20.452 10.47-43.264 16.94-67.774 16.94-82.706 0-150-67.294-150-150s67.294-150 150-150c74.048 0 135.336 54.068 147.444 124.716-60.412-19.45-117.444 26.24-117.444 85.284z" />
<glyph unicode="&#xe93a;" glyph-name="home" d="M1007.742 497.133l-473.602 453.969c-12.367 11.867-31.914 11.867-44.281 0l-474.070-454.438c-10.031-10.031-15.789-23.852-15.789-37.977 0-29.398 23.938-53.336 53.336-53.336h74.664v-384c0-47.141 38.188-85.328 85.336-85.328h597.328c47.148 0 85.336 38.188 85.336 85.328v384h74.664c29.398 0 53.336 23.938 53.336 53.336 0 14.125-5.758 27.945-16.258 38.445z" />
<glyph unicode="&#xe93b;" glyph-name="jackpot" d="M640.4 838.8v93.2h-248.8v-93.2l124.4-124.4 124.4 124.4zM516 448.2c-18.6 0-34-15.2-34-34 0-18.6 15.2-34 34-34s34 15.2 34 34c0 18.8-15.2 34-34 34zM516 516c6.4 0 12.6-0.6 18.6-1.8l167.8 290.6-186.4-186.2-186.6 186.6 167.8-290.8c6.2 1 12.4 1.6 18.8 1.6zM612 448.2h355c-10.6 141-85.8 264-196.2 339.6l-177.4-307.4c8-9.6 14.4-20.4 18.6-32.2zM516 312.4c-6.4 0-12.6 0.6-18.6 1.8l-177.6-307.4c59.4-28.8 126-44.8 196.2-44.8s136.6 16 196 44.8l-177.4 307.4c-6-1.2-12.2-1.8-18.6-1.8zM593.2 348.2l177.4-307.4c110.4 75.6 185.8 198.6 196.2 339.6h-354.8c-4.2-12-10.6-22.8-18.8-32.2zM438.8 348.2c-8 9.4-14.4 20.2-18.6 32.2h-355.2c10.4-140.8 85.8-264 196.2-339.4l177.6 307.2zM438.8 480.2l-177.6 307.4c-110.4-75.6-185.6-198.6-196.2-339.6h355c4.4 12 10.6 22.8 18.8 32.2z" />
<glyph unicode="&#xe93c;" glyph-name="match-betting" d="M1015.212 130.289l-109.192 109.192 43.988 43.988c11.716 11.716 11.716 30.71 0 42.426s-30.71 11.716-42.426 0.002l-273.479-273.477c-11.716-11.716-11.716-30.71 0-42.426 5.858-5.858 13.534-8.788 21.214-8.788 7.676 0 15.356 2.93 21.212 8.786l43.99 43.99 109.192-109.192c5.86-5.858 13.536-8.788 21.214-8.788s15.358 2.93 21.212 8.786l143.075 143.075c11.716 11.714 11.716 30.71 0 42.426zM237.223 908.288c-21.402 21.396-62.256 36.044-124.894 44.774-42.784 5.964-80.064 6.892-81.63 6.93-8.18 0.19-16.116-2.982-21.912-8.78-5.8-5.798-8.97-13.716-8.78-21.914 0.038-1.566 0.962-38.842 6.926-81.626 8.732-62.632 23.38-103.484 44.782-124.888l232.357-232.355 185.503 185.505-232.353 232.353zM554.432 220.089l185.498 185.498 81.244-81.244-185.498-185.498-81.244 81.244zM389.894 52.418l-273.479 273.477c-11.714 11.714-30.71 11.714-42.426-0.002s-11.716-30.71 0-42.426l43.988-43.988-109.192-109.19c-11.714-11.716-11.714-30.71 0-42.426l143.073-143.075c5.626-5.626 13.258-8.788 21.214-8.788s15.586 3.162 21.214 8.788l109.192 109.192 43.992-43.99c5.858-5.858 13.536-8.786 21.212-8.786 7.678 0 15.356 2.928 21.212 8.788 11.716 11.716 11.716 30.71 0 42.426zM1015.21 951.214c-5.796 5.798-13.718 8.968-21.914 8.778-1.566-0.038-38.844-0.964-81.628-6.928-62.636-8.732-103.488-23.376-124.894-44.778l-583.946-583.952 185.501-185.501 583.95 583.952c21.402 21.402 36.050 62.254 44.782 124.89 5.964 42.782 6.89 80.060 6.928 81.626 0.19 8.198-2.982 16.116-8.78 21.914z" />
<glyph unicode="&#xe93d;" glyph-name="plus" d="M967.938 527.993h-375.941v375.292c0 30.887-25.009 56.711-55.895 56.711h-48.111c-30.878 0-55.995-25.825-55.995-56.711v-375.292h-375.991c-30.87 0-56.004-24.976-56.004-55.87v-48.386c0-30.87 25.125-55.737 56.004-55.737h375.999v-376.649c0-30.87 25.109-55.346 55.995-55.346h48.111c30.887 0 55.895 24.484 55.895 55.346v376.649h375.933c30.887 0 56.062 24.876 56.062 55.737v48.386c0 30.895-25.175 55.87-56.062 55.87z" />
<glyph unicode="&#xe93e;" glyph-name="rewind" d="M927.404 634.69l-42.422 296.982c-3.488 24.348-33.414 34.466-50.918 16.962l-61.788-61.788c-79.454 47.93-169.658 73.154-262.412 73.154-278.936 0-502.882-218.32-509.854-497.022-0.38-15.234 10.694-28.3 25.752-30.468l119.882-17.138c17.872-2.608 34.498 11.424 34.25 30.116-2.486 183.94 146.078 334.512 329.97 334.512 44.53 0 88.534-9.052 129.2-26.366l-59.56-59.56c-17.394-17.394-7.522-47.412 16.962-50.918l296.982-42.422c19.568-2.95 36.762 14.068 33.956 33.956zM998.234 461.176l-119.794 17.11c-15.476 1.96-34.248-11.302-34.248-32.286 0-181.962-148.038-330-330-330-44.296 0-88.096 8.964-128.612 26.104l57.656 57.656c17.394 17.394 7.522 47.412-16.962 50.918l-296.982 42.452c-19.506 2.786-36.78-13.942-33.956-33.956l42.42-296.984c3.492-24.374 33.392-34.424 50.918-16.962l63.282 63.252c79.072-47.49 169.218-72.48 262.236-72.48 277.588 0 501.504 217.236 509.794 494.56 0.44 15.264-10.634 28.448-25.752 30.616z" />
<glyph unicode="&#xe93f;" glyph-name="search" d="M420.662 960c-232.223 0-420.479-188.256-420.479-420.479s188.256-420.479 420.479-420.479 420.479 188.256 420.479 420.479c-0.201 232.141-188.338 420.278-420.479 420.479zM420.662 265.295c-151.45 0-274.226 122.775-274.226 274.226s122.775 274.226 274.226 274.226 274.226-122.775 274.226-274.226c-0.201-151.368-122.858-274.025-274.226-274.226zM1002.386 60.905l-146.254 146.254c-28.574 28.574-74.9 28.574-103.475 0s-28.574-74.9 0-103.475l146.254-146.254c28.574-28.574 74.9-28.574 103.475 0s28.574 74.9 0 103.475z" />
<glyph unicode="&#xe940;" glyph-name="send" d="M42.056 726.545h64.085c23.227 0 42.056 18.829 42.056 42.056s-18.829 42.056-42.056 42.056h-64.085c-23.227 0-42.056-18.829-42.056-42.056s18.829-42.056 42.056-42.056zM148.197 341.366c0 23.227-18.829 42.056-42.056 42.056h-64.085c-23.227 0-42.056-18.829-42.056-42.056s18.829-42.056 42.056-42.056h64.085c23.227 0 42.056 18.831 42.056 42.056zM1001.652 485.344l-726.299 384.512c-27.989 14.812-61.734-5.519-61.734-37.17v-171.563h-127.828c-22.804 0-42.226-17.732-43.037-40.52-0.851-23.926 18.292-43.592 42.028-43.592h128.838v-21.993c0-24.415 18.302-44.948 42.555-47.748l346.171-39.943c22.762-2.625 22.762-35.684 0-38.311l-346.171-39.943c-24.252-2.798-42.555-23.333-42.555-47.748v-107.441h-127.828c-22.804 0-42.226-17.732-43.037-40.52-0.851-23.926 18.292-43.592 42.028-43.592h128.838v-93.114c0-22.232 17.994-37.716 40.081-35.179 22.137 2.541-63.729-40.192 747.952 389.523 29.79 15.775 29.802 58.564 0 74.341z" />
<glyph unicode="&#xe941;" glyph-name="steam" d="M763.861 885.333c-142.891 0-259.456-115.029-260.565-256.853l-162.261-231.552c-45.269 4.096-84.309-5.248-118.827-26.197l-222.208 89.472v-244.352l131.413-52.608c18.987-86.997 97.195-152.576 189.739-152.576 100.608 0 183.979 76.928 193.152 174.891l249.813 181.717c143.317 0 259.883 115.669 259.883 259.115l-0.043 0.043c0 142.763-116.565 258.901-260.096 258.901zM321.152 62.208c-54.912 0-102.187 30.763-126.208 75.605 23.296-8.875 46.848-18.645 70.187-27.776 58.325-23.893 124.587 4.565 147.883 62.635 23.552 58.069-5.035 123.605-63.275 146.859l-59.435 23.893c10.283 2.304 20.565 3.413 30.848 3.413 79.317 0 142.848-63.275 142.848-142.293 0-79.061-63.531-142.336-142.848-142.336zM764.117 452.864c-96.469 0-174.848 77.44-174.848 173.525 0 95.659 78.165 173.525 174.848 173.525 95.787 0 174.165-77.867 174.165-173.525 0-96.341-78.421-173.781-174.165-173.525zM764.587 765.611c-77.013 0-139.392-62.165-139.392-138.88s62.165-138.88 139.392-138.88c76.544 0 139.392 61.952 139.392 138.88s-62.848 138.88-139.392 138.88z" />
<glyph unicode="&#xe942;" glyph-name="tick" d="M115.116 495.742l-95.038-94.815 305.415-305.415 678.428 678.428-95.038 95.038-583.39-583.39z" />
<glyph unicode="&#xe943;" glyph-name="upload" d="M760.064 693.056l-224 256c-6.080 6.912-14.848 10.944-24.064 10.944s-17.984-4.032-24.064-10.944l-224-256c-8.256-9.472-10.304-22.848-5.056-34.304 5.184-11.392 16.576-18.752 29.12-18.752h128v-416c0-17.664 14.336-32 32-32h128c17.664 0 32 14.336 32 32v416h128c12.544 0 23.936 7.296 29.12 18.752s3.264 24.896-5.056 34.304zM864 256v-192h-704v192h-128v-256c0-35.392 28.672-64 64-64h832c35.392 0 64 28.608 64 64v256h-128z" />
<glyph unicode="&#xe944;" glyph-name="user" d="M512 960c-148.878 0-270-121.122-270-270s121.122-270 270-270 270 121.122 270 270-121.122 270-270 270zM847.932 243.61c-73.92 75.056-171.914 116.39-275.932 116.39h-120c-104.016 0-202.012-41.334-275.932-116.39-73.558-74.688-114.068-173.276-114.068-277.61 0-16.568 13.432-30 30-30h840c16.568 0 30 13.432 30 30 0 104.334-40.51 202.922-114.068 277.61z" />
<glyph unicode="&#xdccc1;" glyph-name="trophy" d="M1006.933 891.733h-170.667v51.2c0 9.425-7.642 17.067-17.067 17.067h-614.4c-9.425 0-17.067-7.642-17.067-17.067v-51.2h-170.667c-9.425 0-17.067-7.642-17.067-17.067v-273.067c0.142-122.475 99.392-221.725 221.867-221.867h54.308c35.992-38.292 80.742-67.275 130.408-84.467-14.075-14.808-17.958-36.592-9.875-55.358 8.092-18.767 26.592-30.9 47.025-30.842v-170.667h-136.533c-47.108-0.058-85.275-38.225-85.333-85.333 0-9.425 7.642-17.067 17.067-17.067h546.133c9.425 0 17.067 7.642 17.067 17.067-0.058 47.108-38.225 85.275-85.333 85.333h-136.533v170.667c20.433-0.058 38.933 12.075 47.025 30.842 8.083 18.767 4.2 40.55-9.875 55.358 49.9 17.267 94.833 46.442 130.908 84.992 0.85-0.242 1.725-0.417 2.608-0.525h51.2c122.475 0.142 221.725 99.392 221.867 221.867v273.067c0 9.425-7.642 17.067-17.067 17.067zM836.267 789.333h85.333v-187.733c-0.092-61.583-46.917-113.033-108.217-118.9 15.075 37.825 22.842 78.175 22.883 118.9zM210.617 482.7c-61.3 5.867-108.125 57.317-108.217 118.9v187.733h85.333v-187.733c0.042-40.725 7.808-81.075 22.883-118.9zM221.867 413.867c-103.633 0.125-187.608 84.1-187.733 187.733v256h153.6v-34.133h-102.4c-9.425 0-17.067-7.642-17.067-17.067v-204.8c0.1-84.792 68.808-153.5 153.6-153.6h4.658c6.467-11.817 13.675-23.217 21.575-34.133zM765.083-29.867h-506.167c7.258 20.442 26.592 34.108 48.283 34.133h409.6c21.692-0.025 41.025-13.692 48.283-34.133zM546.133 38.4h-68.267v170.667h68.267zM580.267 277.333c9.425 0 17.067-7.642 17.067-17.067s-7.642-17.067-17.067-17.067h-136.533c-9.425 0-17.067 7.642-17.067 17.067s7.642 17.067 17.067 17.067zM512 311.467c-160.158 0.175-289.958 129.975-290.133 290.133v324.267h580.267v-324.267c-0.175-160.158-129.975-289.958-290.133-290.133zM989.867 601.6c-0.125-103.633-84.1-187.608-187.733-187.733h-26.233c8.067 11.183 15.408 22.867 21.983 34.983 1.375-0.458 2.8-0.75 4.25-0.85 84.792 0.1 153.5 68.808 153.6 153.6v204.8c0 9.425-7.642 17.067-17.067 17.067h-102.4v34.133h153.6z" />
<glyph unicode="&#xdccc2;" glyph-name="award" d="M993.998 886.093h-131.406c0.477 14.555 0.742 29.195 0.742 43.906 0 16.57-13.437 30-30 30h-642.671c-16.562 0-30-13.43-30-30 0-14.711 0.266-29.352 0.742-43.906h-131.406c-16.57 0-30-13.43-30-30 0-134.422 35.133-261.242 98.922-357.109 63.055-94.773 147.047-149.133 237.781-154.422 20.57-22.383 42.312-40.633 64.961-54.555v-133.336h-50.328c-60.844 0-110.336-49.5-110.336-110.336v-50.328h-2.133c-16.57 0-30-13.437-30-30 0-16.57 13.43-30 30-30h546.265c16.57 0 30 13.43 30 30 0 16.562-13.43 30-30 30h-2.133v50.328c0 60.836-49.492 110.336-110.336 110.336h-50.328v133.336c22.648 13.914 44.398 32.172 64.969 54.555 90.726 5.289 174.718 59.648 237.781 154.422 63.789 95.867 98.914 222.687 98.914 357.109 0 16.57-13.43 30-30 30zM148.875 532.219c-52.617 79.070-83.531 182.492-88.242 293.874h104.125c10.82-136.922 42.961-263.484 93.195-363.945 8-16 16.367-31.117 25.047-45.351-49.898 18.844-96.078 58.234-134.125 115.422zM722.999 46.337v-50.336h-421.999v50.336c0 27.75 22.578 50.336 50.336 50.336h321.328c27.758 0 50.336-22.586 50.336-50.336zM562.335 156.672h-100.672v107.265c16.492-4.344 33.297-6.602 50.336-6.602s33.844 2.258 50.336 6.602zM580.913 335.313c-1.352-0.555-2.648-1.227-3.891-1.969-21.203-10.547-42.992-16.008-65.023-16.008-22.023 0-43.805 5.461-65 15.992-1.258 0.758-2.562 1.43-3.93 2-23.523 12.437-46.281 31.219-67.805 55.898-1.133 1.617-2.406 3.109-3.82 4.469-21.367 25.367-41.469 56.57-59.828 93.289-55.133 110.258-86.976 255.234-90.601 411.015h581.968c-3.633-155.781-35.476-300.765-90.601-411.015-18.359-36.719-38.461-67.922-59.82-93.289-1.422-1.359-2.711-2.859-3.836-4.477-21.523-24.687-44.289-43.461-67.812-55.906zM875.123 532.219c-38.047-57.187-84.226-96.578-134.125-115.422 8.68 14.234 17.047 29.352 25.047 45.351 50.234 100.461 82.367 227.023 93.195 363.945h104.125c-4.711-111.383-35.625-214.804-88.242-293.874z" />
</font>
</defs>
</svg>
